<?xml version="1.0" standalone="no"?>
<!DOCTYPE svg PUBLIC "-//W3C//DTD SVG 20010904//EN"
 "http://www.w3.org/TR/2001/REC-SVG-20010904/DTD/svg10.dtd">
<svg version="1.0" xmlns="http://www.w3.org/2000/svg"
 width="500.000000pt" height="500.000000pt" viewBox="0 0 500.000000 500.000000"
 preserveAspectRatio="xMidYMid meet">

<g transform="translate(0.000000,500.000000) scale(0.100000,-0.100000)"
fill="#000000" stroke="none">
<path d="M1296 4330 c-72 -63 -67 66 -64 -1740 3 -1832 -5 -1664 83 -1715 l44
-26 3 -72 3 -72 1107 -3 1107 -2 6 21 c4 11 4 41 1 67 -7 54 -4 60 45 90 75
45 69 -97 69 1739 0 1635 0 1648 -20 1681 -40 65 25 62 -1219 62 l-1130 0 -35
-30z m2300 -35 c18 -14 16 -15 -21 -10 -22 3 -528 2 -1123 -2 l-1084 -8 -24
-28 -24 -28 0 -917 c0 -1168 -11 -2347 -21 -2330 -5 7 -9 748 -9 1646 l0 1634
29 29 29 29 1114 0 c975 0 1117 -2 1134 -15z m-117 -209 c8 -9 10 -455 9
-1512 l-3 -1499 -1004 -3 c-733 -1 -1007 1 -1017 9 -20 16 -21 2988 -2 3007
19 19 2002 16 2017 -2z m-1005 -3142 c12 -4 13 -11 6 -24 -7 -13 -5 -21 5 -30
8 -7 15 -9 15 -5 0 5 3 5 7 2 9 -10 -28 -36 -49 -37 -23 0 -58 35 -58 58 0 25
45 47 74 36z"/>
<path d="M1542 4041 c-8 -5 -12 -17 -10 -27 3 -18 32 -19 941 -22 831 -2 938
0 943 13 4 8 1 22 -6 30 -11 13 -130 15 -934 15 -506 0 -927 -4 -934 -9z"/>
<path d="M2357 3911 c-785 -6 -809 -7 -823 -25 -11 -16 -14 -72 -14 -286 0
-247 1 -268 19 -286 18 -20 34 -21 352 -27 184 -3 591 -6 905 -7 l572 -1 27
24 28 23 0 273 c1 335 11 313 -150 316 -59 0 -472 -1 -916 -4z m-204 -170 c4
-1 7 -12 7 -26 l0 -25 -220 0 -220 0 0 23 c0 13 2 26 4 28 3 3 396 3 429 0z
m812 -26 c0 -25 -4 -30 -24 -30 -32 0 -49 28 -31 50 7 9 23 15 34 13 16 -2 21
-10 21 -33z m254 16 c13 -24 -8 -55 -34 -50 -28 6 -42 34 -26 53 18 22 48 20
60 -3z m-264 -280 c0 -30 -15 -36 -40 -17 -17 12 -17 16 -6 30 20 24 46 16 46
-13z"/>
<path d="M1546 3198 c-22 -12 -20 -37 4 -46 24 -9 1822 -16 1850 -7 23 7 26
37 6 54 -18 15 -1834 14 -1860 -1z"/>
<path d="M1563 3080 c-37 -15 -43 -42 -43 -203 0 -141 2 -157 21 -181 l20 -26
913 0 913 0 19 21 c17 19 19 38 19 191 0 166 0 170 -24 189 -22 18 -51 19
-920 18 -493 0 -906 -4 -918 -9z m1401 -182 c8 -14 7 -21 -6 -34 -30 -30 -75
9 -48 42 16 18 39 15 54 -8z m244 13 c8 -4 12 -19 10 -32 -2 -19 -9 -24 -33
-24 -33 0 -45 25 -25 50 14 17 29 19 48 6z m-898 -26 l0 -25 -295 0 -295 0 0
25 0 25 295 0 295 0 0 -25z"/>
<path d="M1857 2610 c-291 -5 -309 -6 -323 -24 -11 -16 -14 -72 -14 -286 0
-254 1 -267 20 -288 l21 -22 697 -2 c1203 -5 1118 -6 1142 18 21 20 21 31 23
293 1 268 0 272 -21 294 l-23 22 -607 0 c-334 0 -746 -2 -915 -5z m1113 -200
c0 -25 -30 -41 -53 -29 -39 22 -4 79 35 58 10 -5 18 -18 18 -29z m250 1 c0
-28 -28 -47 -48 -34 -24 15 -27 44 -7 59 22 17 55 1 55 -25z m-1060 4 l0 -25
-220 0 -220 0 0 25 0 25 220 0 220 0 0 -25z m805 -264 c0 -8 -8 -19 -17 -25
-14 -8 -21 -7 -34 6 -9 9 -13 21 -9 28 10 15 60 8 60 -9z"/>
<path d="M1534 1915 c-4 -8 -4 -22 0 -30 5 -13 116 -15 943 -13 l938 3 0 25 0
25 -938 3 c-827 2 -938 0 -943 -13z"/>
<path d="M1562 1786 c-41 -21 -42 -31 -42 -317 0 -264 1 -277 21 -303 l20 -26
913 0 c865 0 914 1 929 18 14 16 17 55 18 306 1 282 0 289 -20 310 l-22 21
-900 0 c-495 0 -908 -4 -917 -9z m1658 -159 c0 -17 -20 -37 -37 -37 -7 0 -17
9 -23 19 -14 28 13 55 41 41 10 -6 19 -16 19 -23z m-257 11 c7 -22 -4 -38 -28
-38 -28 0 -38 12 -29 34 7 19 50 22 57 4z m-803 -23 l0 -25 -220 0 -220 0 0
25 0 25 220 0 220 0 0 -25z m799 -259 c17 -20 2 -46 -25 -46 -29 0 -41 24 -24
45 16 19 34 19 49 1z m249 5 c23 -14 10 -46 -21 -49 -23 -3 -27 0 -27 21 0 36
19 47 48 28z"/>
<path d="M2460 884 c8 -10 15 -20 16 -22 1 -2 4 1 7 5 3 5 -4 15 -16 23 -21
12 -21 12 -7 -6z"/>
</g>
</svg>
